<svg width="240" height="240" viewBox="0 0 240 240" fill="none" xmlns="http://www.w3.org/2000/svg">
<circle cx="120" cy="120" r="84" fill="#3C0366"/>
<path d="M46.2174 85.3889V155.611C46.2174 159.103 44.8363 162.452 42.3779 164.921C39.9196 167.391 36.5853 168.778 33.1087 168.778C29.6321 168.778 26.2978 167.391 23.8394 164.921C21.3811 162.452 20 159.103 20 155.611V85.3889C20 81.8969 21.3811 78.5479 23.8394 76.0786C26.2978 73.6094 29.6321 72.2222 33.1087 72.2222C36.5853 72.2222 39.9196 73.6094 42.3779 76.0786C44.8363 78.5479 46.2174 81.8969 46.2174 85.3889ZM76.8043 2C73.3277 2 69.9935 3.3872 67.5351 5.85643C65.0767 8.32566 63.6957 11.6746 63.6957 15.1667V225.833C63.6957 229.325 65.0767 232.674 67.5351 235.144C69.9935 237.613 73.3277 239 76.8043 239C80.281 239 83.6152 237.613 86.0736 235.144C88.532 232.674 89.913 229.325 89.913 225.833V15.1667C89.913 11.6746 88.532 8.32566 86.0736 5.85643C83.6152 3.3872 80.281 2 76.8043 2ZM120.5 37.1111C117.023 37.1111 113.689 38.4983 111.231 40.9675C108.772 43.4368 107.391 46.7858 107.391 50.2778V190.722C107.391 194.214 108.772 197.563 111.231 200.032C113.689 202.502 117.023 203.889 120.5 203.889C123.977 203.889 127.311 202.502 129.769 200.032C132.228 197.563 133.609 194.214 133.609 190.722V50.2778C133.609 46.7858 132.228 43.4368 129.769 40.9675C127.311 38.4983 123.977 37.1111 120.5 37.1111ZM164.196 72.2222C160.719 72.2222 157.385 73.6094 154.926 76.0786C152.468 78.5479 151.087 81.8969 151.087 85.3889V155.611C151.087 159.103 152.468 162.452 154.926 164.921C157.385 167.391 160.719 168.778 164.196 168.778C167.672 168.778 171.007 167.391 173.465 164.921C175.923 162.452 177.304 159.103 177.304 155.611V85.3889C177.304 81.8969 175.923 78.5479 173.465 76.0786C171.007 73.6094 167.672 72.2222 164.196 72.2222ZM207.891 54.6667C204.415 54.6667 201.08 56.0539 198.622 58.5231C196.164 60.9923 194.783 64.3413 194.783 67.8333V173.167C194.783 176.659 196.164 180.008 198.622 182.477C201.08 184.946 204.415 186.333 207.891 186.333C211.368 186.333 214.702 184.946 217.161 182.477C219.619 180.008 221 176.659 221 173.167V67.8333C221 64.3413 219.619 60.9923 217.161 58.5231C214.702 56.0539 211.368 54.6667 207.891 54.6667Z" fill="#C27AFF"/>
</svg>
